<svg width="72" height="45" viewBox="0 0 72 45" fill="none" xmlns="http://www.w3.org/2000/svg">
<rect width="72" height="45" fill="#E5E5E5"/>
<g id="main" clip-path="url(#clip0_0_1)">
<rect width="1920" height="6967" transform="translate(-1453 -5819)" fill="#FBFBFB"/>
<g id="Group 1153">
<rect id="Rectangle 20" x="-1113" y="-411" width="1240" height="500" rx="20" fill="#FFF6EF"/>
<g id="Mask group">
<mask id="mask0_0_1" style="mask-type:alpha" maskUnits="userSpaceOnUse" x="-1113" y="-411" width="1240" height="500">
<rect id="Rectangle 22" x="-1113" y="-411" width="1240" height="500" rx="20" fill="#FFF6EF"/>
</mask>
<g mask="url(#mask0_0_1)">
<circle id="Ellipse 53" cx="58.5" cy="-167.5" r="353.5" stroke="#F6E9DF" stroke-opacity="0.65" stroke-width="68"/>
</g>
</g>
<g id=",,">
<path d="M29.3258 14.831C29.3258 18.1268 28.7781 21.2535 27.6826 24.2113C26.5871 27.169 25.0702 29.9155 23.132 32.4507C21.2781 34.9859 19.0871 37.3099 16.559 39.4225C14.1152 41.5352 11.5449 43.3944 8.84831 45L4.17135 41.0704C5.77247 39.6338 7.24719 37.8169 8.59551 35.6197C9.94382 33.4225 10.8287 31.2676 11.25 29.1549C7.96348 28.2254 5.26685 26.4507 3.16011 23.831C1.05337 21.2113 0 18.2113 0 14.831C0 12.8028 0.379213 10.9014 1.13764 9.12676C1.89607 7.35211 2.94944 5.78873 4.29775 4.43662C5.64607 3.08451 7.16292 2.02817 8.84831 1.26761C10.618 0.422535 12.514 0 14.5365 0C16.559 0 18.4551 0.422535 20.2247 1.26761C22.0787 2.02817 23.6376 3.08451 24.9017 4.43662C26.25 5.78873 27.3034 7.35211 28.0618 9.12676C28.9045 10.9014 29.3258 12.8028 29.3258 14.831Z" fill="#F7E9DF"/>
<path d="M72 14.831C72 18.1268 71.4522 21.2535 70.3567 24.2113C69.2612 27.169 67.7444 29.9155 65.8062 32.4507C63.9522 34.9859 61.7612 37.3099 59.2331 39.4225C56.7893 41.5352 54.2191 43.3944 51.5225 45L46.8455 41.0704C48.4466 39.6338 49.9213 37.8169 51.2697 35.6197C52.618 33.4225 53.5028 31.2676 53.9242 29.1549C50.6376 28.2254 47.941 26.4507 45.8343 23.831C43.7275 21.2113 42.6742 18.2113 42.6742 14.831C42.6742 12.8028 43.0534 10.9014 43.8118 9.12676C44.5702 7.35211 45.6236 5.78873 46.9719 4.43662C48.3202 3.08451 49.8371 2.02817 51.5225 1.26761C53.2921 0.422535 55.1882 0 57.2107 0C59.2331 0 61.1292 0.422535 62.8989 1.26761C64.7528 2.02817 66.3118 3.08451 67.5758 4.43662C68.9242 5.78873 69.9775 7.35211 70.736 9.12676C71.5787 10.9014 72 12.8028 72 14.831Z" fill="#F7E9DF"/>
</g>
</g>
</g>
<defs>
<clipPath id="clip0_0_1">
<rect width="1920" height="6967" fill="white" transform="translate(-1453 -5819)"/>
</clipPath>
</defs>
</svg>
