<svg width="359" height="542" viewBox="0 0 359 542" fill="none" xmlns="http://www.w3.org/2000/svg">
<path d="M277.134 248.652L204.093 267.093C204.093 267.093 222.954 348.995 230.298 379.008C237.827 409.734 233.653 508.598 233.653 508.598H254.548L265.855 378.638L277.161 248.678L277.134 248.652Z" fill="#236B44"/>
<path d="M261.232 115.548C261.232 115.548 268.681 141.254 280.727 184.874C280.727 184.874 296.234 190.501 338.183 193.487L336.862 207.436C336.862 207.436 290.607 215.812 265.089 205.27C239.57 194.755 218.199 101.439 261.232 115.548Z" fill="#FFA689"/>
<path d="M301.676 205.455L323.548 230.792L358.894 184.768L344.602 157.186L301.676 205.455Z" fill="#5EB083"/>
<path d="M297.845 216.076L334.96 166.301L358.894 184.768L323.548 230.792L297.845 216.076Z" fill="#5EB083"/>
<path d="M352.739 194.993C352.58 194.227 351.603 193.936 350.942 194.359C349.674 195.178 348.142 197.08 344.549 197.186C340.957 197.291 336.255 194.781 334.696 196.419C334.696 196.419 326.93 206.327 334.802 216.129C334.802 216.129 358.629 222.337 352.739 194.993Z" fill="#FFA689"/>
<path d="M246.518 189.92C246.518 189.92 265.089 187.172 280.331 174.042C280.331 174.042 274.942 145.059 267.44 127.569C259.937 110.079 248.103 94.7816 228.872 106.169C209.64 117.556 215.241 143.659 246.518 189.92Z" fill="#5EB083"/>
<path d="M184.465 178.242C184.465 178.242 200.315 188.308 220.418 188.308C220.418 188.308 235.264 162.84 240.997 144.689C246.729 126.565 247.759 107.225 225.754 103.289C203.75 99.3523 190.938 122.787 184.439 178.242H184.465Z" fill="#5EB083"/>
<path d="M267.07 256.525C267.07 256.525 221.924 241.281 193.949 266.512C193.949 266.512 199.074 290.21 214.527 318.559C240.627 366.511 253.994 382.02 253.994 382.02C253.994 382.02 225.543 407.33 170.729 470.606C170.729 470.606 174.163 483.552 185.205 487.7C185.205 487.7 265.538 411.927 289.762 391.716C297.687 385.111 296.075 380.144 292.958 365.507C287.675 340.725 270.187 267.806 267.096 256.525H267.07Z" fill="#236B44"/>
<path d="M228.634 68.6786L227.656 88.4936C227.656 88.4936 243.216 101.307 256.028 100.726L261.945 74.3061L225.675 49.6562L228.634 68.6786Z" fill="#FFA689"/>
<path d="M236.11 65.2176C236.11 65.2176 244.378 80.6469 259.462 85.3496L261.945 74.2796L236.11 65.1912V65.2176Z" fill="#ED8A6D"/>
<path d="M204.252 338.348L167.374 310.342C165.314 308.757 164.891 305.825 166.476 303.737C168.061 301.677 170.993 301.254 173.08 302.839L209.957 330.844C212.018 332.43 212.441 335.362 210.856 337.449C209.271 339.51 206.338 339.933 204.252 338.348Z" fill="#07150E"/>
<path d="M173.582 313.46L92.5096 420.25" stroke="#07150E" stroke-width="0.94" stroke-miterlimit="10"/>
<path d="M199.549 333.249L118.477 440.012" stroke="#07150E" stroke-width="0.94" stroke-miterlimit="10"/>
<path d="M196.3 119.062C196.3 119.062 156.834 121.043 150.494 143.315C144.154 165.587 144.999 253.117 144.999 253.117C144.999 253.117 153.32 273.011 180.001 275.574C180.001 275.574 193.923 278.797 193.104 249.576C192.311 220.382 196.274 119.062 196.274 119.062H196.3Z" fill="#050D08"/>
<path d="M174.084 123.368C174.084 123.368 170.121 126.829 168.008 131.373C160.268 148.018 162.645 192.906 159.37 196.525C156.622 199.537 151.973 200.092 147.377 201.36C145.422 201.888 143.124 200.647 143.229 198.744C144.973 160.356 142.014 128.414 174.084 123.368Z" fill="#18432B"/>
<path d="M145.369 206.776C145.369 206.776 155.988 204.345 157.838 206.882C160.479 210.501 159.449 251.69 156.49 252.826C153.558 253.962 143.203 253.064 142.622 252.192C140.429 248.942 139.055 208.123 145.369 206.802V206.776Z" fill="#18432B"/>
<path d="M278.904 19.009C278.904 19.009 289.841 72.2453 273.595 78.7446C257.349 85.2439 233.574 68.6786 227.762 51.8226C222.796 37.4501 223.324 3.31548 278.904 19.009Z" fill="#FFA689"/>
<path d="M262.79 27.3578C262.79 27.3578 267.202 38.6656 258.485 41.334C251.379 43.5004 249.318 48.7316 249.318 48.7316C249.318 48.7316 247.865 37.371 240.125 36.9483C231.698 36.4991 232.174 48.5202 239.57 54.4383C239.57 54.4383 239.57 68.7051 228.634 68.7051C228.634 68.7051 203.961 40.3829 214.739 23.2891C213.154 18.0844 220.524 4.18749 239.438 2.41735C258.352 0.647206 263.794 5.05934 278.165 0.59436C291.901 -3.65926 300.962 29.2865 262.817 27.3842L262.79 27.3578Z" fill="#050D08"/>
<path opacity="0.22" d="M231.619 252.113L280.304 378.612L177.042 477.792" stroke="#FBFBFB" stroke-width="0.25" stroke-miterlimit="10"/>
<path d="M94.7022 530.13C94.7022 536.656 89.4189 541.967 82.8676 541.967C76.3163 541.967 71.0331 536.683 71.0331 530.13C71.0331 523.578 76.3163 518.294 82.8676 518.294C89.4189 518.294 94.7022 523.578 94.7022 530.13Z" fill="#07150E"/>
<path d="M50.6396 509.259C50.6396 515.784 45.3562 521.095 38.805 521.095C32.2537 521.095 26.9703 515.811 26.9703 509.259C26.9703 502.706 32.2537 497.422 38.805 497.422C45.3562 497.422 50.6396 502.706 50.6396 509.259Z" fill="#07150E"/>
<path d="M146.531 417.978C146.531 417.978 150.177 470.818 131.263 499.985C112.348 529.153 84.7432 524.424 84.7432 524.424L90.4228 515.494C90.4228 515.494 110.367 523.658 122.175 492.508C134.01 461.359 131.632 429.021 131.632 429.021L146.505 417.978H146.531Z" fill="#07150E"/>
<path d="M124.659 403.05C124.659 403.05 136.493 404.186 145.871 415.441C153.109 424.107 98.9289 507.911 86.7509 526.511C85.2979 528.73 82.6034 529.761 80.041 529.074C71.3236 526.749 51.1678 520.487 36.5331 509.444C36.5331 509.444 92.4568 411.293 124.659 403.05Z" fill="#050D08"/>
<path d="M128.859 403.975C128.859 403.975 84.3733 377.212 60.4928 399.431C44.6429 414.173 14.1055 455.705 2.27087 472.086C-0.582115 476.049 -0.133025 481.491 3.35395 484.926C10.9883 492.403 26.9967 504.239 38.2766 510.395C39.9408 511.319 42.0277 510.765 43.0844 509.179C52.7528 494.516 99.0081 425.666 128.885 403.949L128.859 403.975Z" fill="#18432B"/>
<path d="M30.3516 437.449C28.6081 436.075 25.9929 436.815 24.6456 438.585C18.9925 446.009 4.8597 464.582 2.7728 468.096C-1.32176 474.965 15.4263 489.496 35.8991 500.302C42.2919 503.684 50.1112 489.021 58.3531 477.792C63.7949 470.368 68.4971 463.843 67.8895 461.438C67.2027 458.849 56.5568 455.52 46.8091 449.497C40.4427 445.534 35.0009 441.121 30.3516 437.475V437.449Z" fill="#236B44"/>
<path d="M128.859 403.975C128.859 403.975 108.756 389.735 80.2524 389.285C56.0285 388.916 29.4271 430.844 29.4271 430.844C25.993 435.256 67.4932 460.408 72.1161 454.675C90.4491 432.086 108.386 414.939 117.526 406.67C118.16 406.141 123.074 402.178 128.885 403.975H128.859Z" fill="#236B44"/>
<path d="M53.4662 504.978L78.2448 467.594C79.143 466.247 80.9129 465.745 82.3658 466.458L106.616 477.951C108.148 478.691 108.677 480.593 107.752 482.02L83.7395 518.426C82.3659 520.513 79.6713 521.359 77.3467 520.381L55.3681 511.214C52.9114 510.183 52.0132 507.198 53.4662 504.978Z" fill="#103F26"/>
<path d="M222.135 91.0037C222.135 91.0037 197.885 95.3894 193.949 131.664C190.013 167.939 193.949 270.607 193.949 270.607C193.949 270.607 216.667 279.405 242.423 266.855C259.013 258.771 269.606 258.321 274.097 257.318C275.919 256.895 277.187 255.336 277.214 253.46C277.267 249.497 277.319 241.888 277.293 230.422C277.214 198.375 273.753 143.844 259.964 106.433C259.964 106.433 236.559 92.1397 222.162 91.0037H222.135Z" fill="#5EB083"/>
<path d="M238.487 157.265C218.252 156.261 203.274 164.372 192.206 176.816C191.994 219.616 193.949 270.607 193.949 270.607C193.949 270.607 207.474 275.811 225.437 272.456C212.573 252.773 212.467 234.728 223.588 212.588C232.491 194.887 238.487 157.265 238.487 157.265Z" fill="#5EB083"/>
<path d="M193.949 131.664C193.949 131.664 213.18 100.356 227.26 105.64C244.563 112.14 248.076 145.587 222.135 180.62L208.319 195.23L204.78 208.229C204.78 208.229 239.966 177.186 248.235 147.014C256.503 116.842 245.646 104.874 230.483 99.6957C211.859 93.3285 202.931 104.689 191.571 120.383L193.923 131.611L193.949 131.664Z" fill="#050D08"/>
<path d="M190.779 164.002C190.779 164.002 184.862 189.629 182.907 221.967C181.243 249.154 180.978 282.628 180.952 292.588C180.952 294.305 180.292 295.943 179.077 297.132C175.854 300.303 169.646 308.149 170.702 320.725C171.072 325.138 173.001 331.241 183.964 334.754C185.469 335.23 189.432 336.895 189.432 329.206C189.432 321.518 192.549 316.34 195.692 313.777C198.836 311.214 202.059 317.978 202.059 323.473C202.059 328.968 205.757 325.481 206.497 321.571C207.236 317.661 206.655 307.146 198.361 296.208C198.361 296.208 198.202 294.279 199.259 281.122C200.289 267.965 202.508 223.421 207.236 212.034C211.965 200.647 225.57 168.176 225.57 168.176L190.832 163.976L190.779 164.002Z" fill="#FFA689"/>
<path d="M184.465 180.779C184.465 180.779 200.315 188.308 220.418 188.308C220.418 188.308 235.264 162.84 240.997 144.689C246.729 126.565 247.759 107.225 225.754 103.289C203.75 99.3523 190.938 125.323 184.439 180.779H184.465Z" fill="#5EB083"/>
<path d="M234.049 506.432C234.049 506.432 228.238 514.886 231.091 527.118C231.513 528.941 233.072 530.183 234.789 530.183H297.555C298.849 530.183 299.879 528.968 299.721 527.594C299.298 524.027 296.366 517.819 281.44 515.996C277.346 515.494 273.436 513.961 270.187 511.425C264.824 507.224 256.635 501.465 253.809 503.05C253.809 503.05 244.801 508.492 234.023 506.432H234.049Z" fill="#050D08"/>
<path d="M227.868 84.1609C225.622 84.2401 222.109 91.0037 222.109 91.0037C222.109 91.0037 228.766 96.1292 244.906 102.047C252.382 104.795 256.133 108.652 257.85 111.083C258.379 111.823 259.515 111.532 259.62 110.634C260.096 107.041 260.307 100.726 256.794 97.0803C256.794 97.0803 234.551 91.0037 227.815 84.1609H227.868Z" fill="#236B44"/>
<path d="M171.046 470.791C171.046 470.791 160.876 472.086 153.611 482.337C152.528 483.842 152.634 485.85 153.796 487.145L195.534 534.041C196.406 535.018 197.991 534.965 198.915 533.935C201.293 531.24 203.961 524.926 195.455 512.561C193.104 509.179 191.651 505.243 191.387 501.121C190.964 494.305 189.828 484.371 186.737 483.314C186.737 483.314 176.699 480.197 171.072 470.791H171.046Z" fill="#050D08"/>
<path d="M196.934 320.963L206.814 328.467L205.995 332.852L194.477 327.093L196.934 320.963Z" fill="#07150E"/>
</svg>
